<svg width="32" height="32" viewBox="0 0 32 32" fill="none" xmlns="http://www.w3.org/2000/svg">
<path d="M16.8382 3.68183C16.5479 3.39157 16.1541 3.22852 15.7436 3.22852C15.333 3.22852 14.9393 3.39157 14.649 3.68183L3.81108 14.5197C3.52905 14.8117 3.373 15.2028 3.37652 15.6088C3.38005 16.0147 3.54288 16.403 3.82994 16.6901C4.117 16.9772 4.50533 17.14 4.91128 17.1435C5.31723 17.147 5.70833 16.991 6.00033 16.709L6.45398 16.2553V26.4522C6.45398 26.8628 6.6171 27.2567 6.90746 27.547C7.19781 27.8374 7.59162 28.0005 8.00225 28.0005H11.0988C11.5094 28.0005 11.9032 27.8374 12.1936 27.547C12.4839 27.2567 12.6471 26.8628 12.6471 26.4522V23.3557C12.6471 22.9451 12.8102 22.5512 13.1005 22.2609C13.3909 21.9705 13.7847 21.8074 14.1953 21.8074H17.2919C17.7025 21.8074 18.0963 21.9705 18.3867 22.2609C18.677 22.5512 18.8401 22.9451 18.8401 23.3557V26.4522C18.8401 26.8628 19.0033 27.2567 19.2936 27.547C19.584 27.8374 19.9778 28.0005 20.3884 28.0005H23.4849C23.8956 28.0005 24.2894 27.8374 24.5797 27.547C24.8701 27.2567 25.0332 26.8628 25.0332 26.4522V16.2553L25.4868 16.709C25.7789 16.991 26.17 17.147 26.5759 17.1435C26.9819 17.14 27.3702 16.9772 27.6572 16.6901C27.9443 16.403 28.1071 16.0147 28.1107 15.6088C28.1142 15.2028 27.9581 14.8117 27.6761 14.5197L16.8382 3.68183Z" fill="url(#paint0_linear_1019_11724)"/>
<defs>
<linearGradient id="paint0_linear_1019_11724" x1="28.1107" y1="15.6145" x2="3.37646" y2="15.6145" gradientUnits="userSpaceOnUse">
<stop stop-color="#7CDFFF"/>
<stop offset="1" stop-color="#92FE9E"/>
</linearGradient>
</defs>
</svg>
