<svg width="20" height="25" viewBox="0 0 20 25" fill="none" xmlns="http://www.w3.org/2000/svg">
<path fill-rule="evenodd" clip-rule="evenodd" d="M5.40889 10.7216C6.52595 11.9979 8.2754 12.171 9.84021 12.171L9.84136 12.1698C11.405 12.1698 13.1533 11.9979 14.2727 10.7216C15.212 9.64607 15.5167 7.98894 15.2028 5.65327C14.7654 2.39209 12.761 0.445312 9.84136 0.445312C6.92177 0.445312 4.91844 2.39209 4.47993 5.65327C4.16604 7.98894 4.46954 9.64838 5.40889 10.7216ZM1.18644 22.6308C1.64804 23.2147 2.32543 23.5378 3.09052 23.5378H16.5899V23.5355C17.355 23.5355 18.0301 23.2124 18.4917 22.6296C18.9786 22.0145 19.1564 21.1652 18.9671 20.3597C18.0024 16.285 14.2496 13.4392 9.83905 13.4392C5.42851 13.4392 1.67573 16.2861 0.713307 20.3597C0.521744 21.1652 0.699459 22.0145 1.18644 22.6308Z" fill="#29313D"/>
</svg>
